<svg xmlns="http://www.w3.org/2000/svg" xmlns:xlink="http://www.w3.org/1999/xlink" id="Layer_1" data-name="Layer 1" viewBox="0 0 198.85 50.16"><defs><linearGradient id="linear-gradient" x1="25.65" y1="19.84" x2="25.65" y2="46.52" gradientUnits="userSpaceOnUse"><stop offset="0.28" stop-color="#1eeb00"></stop><stop offset="0.51" stop-color="#1ee700"></stop><stop offset="0.73" stop-color="#1edb00"></stop><stop offset="0.95" stop-color="#1ec800"></stop><stop offset="1" stop-color="#1ec200"></stop></linearGradient></defs><title>logo-coink-lateral</title><path d="M188.73,40.66H177.88L169.18,26.2H169V40.66H160.2V14.05H169v9.1h.16l8.49-9.1H188.3L178,24.39Z" fill="#004b40"></path><path d="M190.82,14.23a3.85,3.85,0,0,1,.32-1.56,4.08,4.08,0,0,1,2.14-2.14,4,4,0,0,1,3.12,0,4.08,4.08,0,0,1,2.14,2.14,4,4,0,0,1,0,3.12,4.08,4.08,0,0,1-2.14,2.14,4,4,0,0,1-3.12,0,4.08,4.08,0,0,1-2.14-2.14A3.85,3.85,0,0,1,190.82,14.23Zm1.1,0a3.1,3.1,0,0,0,.23,1.18,3,3,0,0,0,.63,1,3.07,3.07,0,0,0,.93.65A2.76,2.76,0,0,0,196,17a3.07,3.07,0,0,0,.93-.65,3,3,0,0,0,.63-1,3.19,3.19,0,0,0,0-2.36,3,3,0,0,0-.63-1,3.08,3.08,0,0,0-.93-.65,2.76,2.76,0,0,0-2.27,0,3.07,3.07,0,0,0-.93.65,3,3,0,0,0-.63,1A3.1,3.1,0,0,0,191.92,14.23Zm1.37-2.15h1.49l.47,0a1.77,1.77,0,0,1,.59.15,1.33,1.33,0,0,1,.51.4,1.24,1.24,0,0,1,.22.78,1.42,1.42,0,0,1-.09.53,1,1,0,0,1-.22.35.91.91,0,0,1-.31.2,1.44,1.44,0,0,1-.36.09l1.08,1.67h-1.13l-1-1.62h-.18v1.62h-1.1Zm1.09,1.75H195a.67.67,0,0,0,.21-.05.39.39,0,0,0,.16-.13.53.53,0,0,0,0-.51.39.39,0,0,0-.16-.13.68.68,0,0,0-.21-.05h-.65Z" fill="#004b40"></path><path d="M145.81,40.66V26.13c0-2.94-.8-5.61-4-5.61s-4.7,2.67-4.7,5.72V40.66h-8.82V14.05h8.49l.11,2.45a10.8,10.8,0,0,1,8-3.2c7.16,0,9.72,5.56,9.72,10.9V40.66Z" fill="#004b40"></path><path d="M114.39,39.53V15.18L122.76,12V42.75Z" fill="#004b40"></path><path d="M95.41,41.51c-8,0-14.74-5.56-14.74-14.26S87.4,13.2,95.41,13.2s14.8,5.34,14.8,14.05S103.48,41.51,95.41,41.51Zm0-21c-4.11,0-6.25,3.37-6.25,6.78s2.19,6.89,6.3,6.89,6.3-3.47,6.3-6.89S99.53,20.46,95.41,20.46Z" fill="#004b40"></path><path d="M73.77,31.88a6.89,6.89,0,1,1,0-9l4.81-5.5a14.16,14.16,0,1,0,0,20Z" fill="#004b40"></path><circle cx="25.65" cy="5.46" r="4.65" fill="#fbb040"></circle><path d="M25.65,10.93a5.46,5.46,0,1,1,5.46-5.46A5.47,5.47,0,0,1,25.65,10.93Zm0-9.31a3.84,3.84,0,1,0,3.84,3.84A3.85,3.85,0,0,0,25.65,1.62Z" fill="#004b40"></path><path d="M13.42,47.32,10.84,49l-.45-.38c-.22-.18-5.31-4.59-5.31-19.1a32.28,32.28,0,0,1,1.52-9.84c-2-2.08-2.48-4-3.12-6.29-.17-.62-.34-1.27-.56-2A38.05,38.05,0,0,0,1.48,7.45l-.37-.82L2,6.35a14.86,14.86,0,0,1,4.61-.76,13.51,13.51,0,0,1,9.16,3.62,29.75,29.75,0,0,1,9.91-1.65,29.75,29.75,0,0,1,9.91,1.65,13.51,13.51,0,0,1,9.16-3.62,14.86,14.86,0,0,1,4.61.76l.86.28-.37.82a38.06,38.06,0,0,0-1.45,3.92c-.22.7-.39,1.35-.56,2-.63,2.34-1.14,4.21-3.12,6.29a32.29,32.29,0,0,1,1.53,9.84c0,14.51-5.09,18.92-5.31,19.1l-.45.38-2.57-1.63-2.28,1.73-.5-.57A12.51,12.51,0,0,1,33,45.13a31.54,31.54,0,0,1-14.74,0,12.51,12.51,0,0,1-2.08,3.36l-.5.57Z" fill="url(#linear-gradient)"></path><path d="M25.65,28.68c1.77,0,5.24-2,6.61-5.06s-1.59-4-2.77-4.21a29.67,29.67,0,0,0-3.84-.28,29.67,29.67,0,0,0-3.84.28c-1.18.22-4.13,1.17-2.77,4.21S23.87,28.68,25.65,28.68Z" fill="#afff6a"></path><path d="M29.63,18.62a30.08,30.08,0,0,0-4-.29,30.06,30.06,0,0,0-4,.29,4.9,4.9,0,0,0-3.44,2.14A3.53,3.53,0,0,0,18.29,24c1.54,3.43,5.32,5.54,7.35,5.54S31.46,27.39,33,24a3.53,3.53,0,0,0,.08-3.19A4.9,4.9,0,0,0,29.63,18.62Zm1.88,4.67c-1.27,2.84-4.53,4.58-5.87,4.58s-4.6-1.74-5.87-4.58a2,2,0,0,1-.13-1.78,3.33,3.33,0,0,1,2.3-1.3,29,29,0,0,1,3.69-.27,29,29,0,0,1,3.71.27,3.33,3.33,0,0,1,2.3,1.3A2,2,0,0,1,31.52,23.29ZM49.58,5.58a15.67,15.67,0,0,0-4.86-.8,14.37,14.37,0,0,0-9.35,3.51,31.44,31.44,0,0,0-19.45,0A14.37,14.37,0,0,0,6.57,4.78a15.67,15.67,0,0,0-4.86.8L0,6.14.74,7.79a37.27,37.27,0,0,1,1.41,3.82c.21.69.39,1.33.55,1.95a13.83,13.83,0,0,0,3,6.28,33.11,33.11,0,0,0-1.42,9.64c0,6.16.89,11.29,2.65,15.25a12.58,12.58,0,0,0,3,4.47l.91.76,1-.63,1.6-1,1.23.93,1.2.91,1-1.13a13.93,13.93,0,0,0,2-3,32.32,32.32,0,0,0,13.77,0,13.92,13.92,0,0,0,2,3l1,1.13,1.2-.91,1.23-.93,1.6,1,1,.63.91-.76a12.58,12.58,0,0,0,3-4.47c1.76-4,2.65-9.1,2.65-15.25a33.11,33.11,0,0,0-1.42-9.64,13.83,13.83,0,0,0,3-6.28c.17-.62.34-1.25.55-1.95a37.27,37.27,0,0,1,1.41-3.82l.74-1.64ZM46.82,10.9c-.22.73-.4,1.39-.58,2a12.07,12.07,0,0,1-2.17,5,26.78,26.78,0,0,0-2.85-5.53,8.43,8.43,0,0,1,3.65-2.87L44.18,8c-3.79,1.79-4.64,4-4.67,4.13l-.15.42.27.35a29.07,29.07,0,0,1,5,16.56c0,11.28-3.2,16.09-4.34,17.44l-2.46-1.56-2,1.5a7.83,7.83,0,0,1-1.3-2.13c.68-.2,1.36-.42,2-.66L36,42.54a30,30,0,0,1-20.69,0l-.56,1.52c.67.25,1.35.46,2,.66a7.83,7.83,0,0,1-1.3,2.13l-2-1.5L11,46.92C9.9,45.59,6.7,40.84,6.7,29.48a29.07,29.07,0,0,1,5-16.56l.27-.35-.15-.42c0-.09-.88-2.34-4.67-4.13L6.42,9.48a8.44,8.44,0,0,1,3.65,2.87,26.8,26.8,0,0,0-2.85,5.53,12.07,12.07,0,0,1-2.17-5c-.17-.64-.35-1.29-.58-2-.42-1.35-.86-2.51-1.16-3.25a11.79,11.79,0,0,1,11.6,3l.37.42.52-.19a28,28,0,0,1,9.84-1.73,28,28,0,0,1,9.84,1.73l.52.19.37-.41a11.79,11.79,0,0,1,11.6-3C47.67,8.38,47.23,9.55,46.82,10.9Zm-22,11.25v.72a1.24,1.24,0,1,1-2.48,0v-.72a1.24,1.24,0,1,1,2.48,0Zm-7.1-4a1.78,1.78,0,1,1-1.78-1.78A1.78,1.78,0,0,1,17.69,18.18Zm11.3,4v.72a1.24,1.24,0,1,1-2.48,0v-.72a1.24,1.24,0,1,1,2.48,0Zm8.18-4a1.78,1.78,0,1,1-1.78-1.78A1.78,1.78,0,0,1,37.17,18.18Z" fill="#004b40"></path></svg>